<?xml version="1.0" encoding="utf-8"?>
<!-- Generator: Adobe Illustrator 19.2.1, SVG Export Plug-In . SVG Version: 6.00 Build 0)  -->
<svg version="1.1" id="Capa_1" xmlns="http://www.w3.org/2000/svg" xmlns:xlink="http://www.w3.org/1999/xlink" x="0px" y="0px"
	 viewBox="0 0 50 50" style="enable-background:new 0 0 50 50;" xml:space="preserve">
<style type="text/css">
	.st0{fill:#CA7332;}
</style>
<g>
	<g>
		<path class="st0" d="M15.4,30.1h8.1v-3.3h-4.8v-7.7c0-3.4-2.8-6.2-6.2-6.2h-1.6H9.3c-3.4,0-6.2,2.8-6.2,6.2v1.6h12.3L15.4,30.1
			L15.4,30.1z"/>
		<path class="st0" d="M24.9,33h-9.5v4.8h6.4v8.7h4.8V34.7C26.5,33.8,25.8,33,24.9,33L24.9,33z"/>
		<path class="st0" d="M26.4,30.3c1.8,0.6,3.1,2.3,3.1,4.3v0.5h2.9v-2.9h2.9v2.9h2.9v2.9h-2.9V41h-2.9v-2.9h-2.9v8.4H50V26.8H26.4
			V30.3z"/>
		<path class="st0" d="M37.5,23.9h9.3v-4.8c0-3.4-2.8-6.2-6.2-6.2h-1.6h-1.6c-2.9,0-5.4,2-6,4.8h5.3L37.5,23.9z"/>
		<circle class="st0" cx="39.1" cy="8.2" r="4.7"/>
		<circle class="st0" cx="10.9" cy="8.2" r="4.7"/>
		<path class="st0" d="M34.6,23.9l-0.4-3.3h-7.4l0.4,3.3H34.6z"/>
		<path class="st0" d="M12.4,23.7H0v22.8h2.9v-8.7h6.6v8.7h2.9V23.7z"/>
	</g>
</g>
</svg>
