<?xml version="1.0" encoding="utf-8"?>
<!-- Generator: Adobe Illustrator 19.2.1, SVG Export Plug-In . SVG Version: 6.00 Build 0)  -->
<svg version="1.1" id="Capa_1" xmlns="http://www.w3.org/2000/svg" xmlns:xlink="http://www.w3.org/1999/xlink" x="0px" y="0px"
	 viewBox="0 0 20 20" style="enable-background:new 0 0 20 20;" xml:space="preserve">
<style type="text/css">
	.st0{fill:#43755B;}
</style>
<g id="XMLID_541_">
	<path id="XMLID_543_" class="st0" d="M17.1,3.8c-1.6,0-2.9,1.3-2.9,2.9c0,1.1,0.7,2.2,1.7,2.6V10c0,0.5,0.3,1,0.8,1.2v3.3
		c0,1-0.7,1.9-1.7,2.1v-2.4c0-1.1-0.9-2.1-2.1-2.1s-2.1,0.9-2.1,2.1v1.3c0,1.1,0.9,2.1,2.1,2.1h1.2c-0.2,1-1.1,1.7-2.1,1.7H8
		c-1.2,0-2.2-1-2.2-2.2v-1.2c0.5-0.2,0.8-0.6,0.8-1.2v-1c2.4-0.6,4.2-2.7,4.2-5.3V5.8c0-0.5-0.3-1-0.8-1.2v-2c0-1-0.7-1.7-1.7-1.8
		V0.4C8.3,0.2,8.1,0,7.9,0H7.1C6.4,0,5.8,0.6,5.8,1.3s0.6,1.3,1.3,1.3h0.8c0.2,0,0.4-0.2,0.4-0.4V1.7c0.5,0.1,0.8,0.5,0.8,1v2
		C8.7,4.8,8.3,5.3,8.3,5.8v0.8c0,1.6-1.3,2.9-2.9,2.9S2.5,8.3,2.5,6.7V5.8c0-0.5-0.3-1-0.8-1.2v-2c0-0.5,0.4-0.9,0.8-1v0.4
		c0,0.2,0.2,0.4,0.4,0.4h0.8C4.4,2.5,5,1.9,5,1.3S4.4,0,3.8,0H2.9C2.7,0,2.5,0.2,2.5,0.4v0.4C1.6,0.9,0.8,1.7,0.8,2.7v2
		C0.3,4.8,0,5.3,0,5.8v2.5c0,2.5,1.8,4.7,4.2,5.3v1c0,0.5,0.3,1,0.8,1.2V17c0,1.7,1.3,3,3,3h4c1.5,0,2.7-1.1,3-2.5
		c1.4-0.2,2.5-1.5,2.5-3v-3.3c0.5-0.2,0.8-0.6,0.8-1.2V9.3c1-0.5,1.7-1.5,1.7-2.6C20,5.1,18.7,3.8,17.1,3.8z M2.6,9.2
		c1.5,1.7,4.1,1.7,5.6,0c-0.4,1.2-1.5,2.1-2.8,2.1S3,10.4,2.6,9.2z M14.2,16.7h-1.3c-0.7,0-1.3-0.6-1.3-1.2v-1.3
		c0-0.7,0.6-1.3,1.3-1.3c0.7,0,1.3,0.6,1.3,1.3V16.7z M17.1,7.9c-0.7,0-1.3-0.6-1.3-1.3s0.6-1.3,1.3-1.3c0.7,0,1.3,0.6,1.3,1.3
		S17.8,7.9,17.1,7.9z"/>
	<path id="XMLID_516_" class="st0" d="M17.1,6.3c-0.2,0-0.4,0.2-0.4,0.4c0,0.2,0.2,0.4,0.4,0.4c0.2,0,0.4-0.2,0.4-0.4
		C17.5,6.4,17.3,6.3,17.1,6.3z"/>
</g>
</svg>
