<?xml version="1.0" encoding="utf-8"?>
<!-- Generator: Adobe Illustrator 19.2.1, SVG Export Plug-In . SVG Version: 6.00 Build 0)  -->
<svg version="1.1" id="Capa_1" xmlns="http://www.w3.org/2000/svg" xmlns:xlink="http://www.w3.org/1999/xlink" x="0px" y="0px"
	 viewBox="0 0 50 50" style="enable-background:new 0 0 50 50;" xml:space="preserve">
<style type="text/css">
	.st0{fill:#D3752E;}
</style>
<g>
	<g>
		<path class="st0" d="M3.9,34.9c0.5,0.1,0.9,0.6,1,1.1c0.2,1.4,0.1,2.8-0.3,4.1c-0.5,1.6,1.1,3,2.6,2.3c1.3-0.6,2.4-1.2,3.4-1.9
			c0.5,0.2,1.1,0.4,1.7,0.4h21.5c1.1,0,2.2,0.6,2.8,1.5c1.7,2.5,4.3,4.4,7.5,5.8c0.9,0.4,1.8-0.4,1.5-1.3c-0.4-1.4-0.6-2.9-0.4-4.4
			c0.1-0.8,0.7-1.5,1.5-1.8c2-0.5,3.3-2.3,3.3-4.4V13.4C50,11,48,9,45.6,9h-1.9V6.9c0-2.9-2.3-5.2-5.2-5.2H5.2C2.3,1.7,0,4,0,6.9
			v22.9c0,1.4,0.6,2.8,1.6,3.8C2.2,34.2,3.1,34.7,3.9,34.9z M1.6,6.9c0-2,1.6-3.6,3.6-3.6h33.3c2,0,3.6,1.6,3.6,3.6v23.1
			c0,2-1.6,3.6-3.6,3.6H17.1c-1.4,0-2.6,0.7-3.4,1.9c-1.5,2.2-3.8,4-7.1,5.6C6.2,41,6,40.8,6.1,40.6c0.5-1.5,0.6-3.2,0.4-4.8
			c-0.2-1.1-1-2.1-2.1-2.4c-0.6-0.2-1.2-0.5-1.6-1c-0.7-0.7-1.1-1.7-1.1-2.6V6.9z"/>
		<g>
			<path class="st0" d="M19.7,27.9c-1.2,0.8-2.5,1.2-3.9,1.2c-1.8,0-3.4-0.4-4.6-1.3c-1.2-0.9-1.8-2.2-1.8-3.8c0-1,0.3-1.9,0.8-2.7
				c0.3-0.4,0.9-1,1.8-1.7l0.9-0.7c0.5-0.4,0.8-0.8,0.9-1.3c0.1-0.3,0.1-0.8,0.2-1.4h3.3c0,1.3-0.2,2.3-0.4,2.8
				c-0.2,0.5-0.7,1.1-1.6,1.8l-0.9,0.7c-0.5,0.4-0.8,0.8-1,1.3c-0.1,0.3-0.2,0.6-0.2,1c0,0.7,0.2,1.3,0.6,1.7c0.4,0.4,1,0.7,1.8,0.7
				c1.1,0,1.9-0.4,2.3-1.3c0.2-0.5,0.3-1,0.3-1.5h3.5C21.5,25.6,20.9,27.1,19.7,27.9z M17.2,14.6h-3.6v-3.5h3.6V14.6z"/>
			<path class="st0" d="M24.5,7.2c0.9-0.6,2.1-0.9,3.5-0.9c1.8,0,3.3,0.4,4.5,1.3c1.2,0.9,1.8,2.2,1.8,3.9c0,1-0.3,1.9-0.8,2.6
				c-0.3,0.4-0.9,1-1.8,1.7l-0.9,0.7c-0.5,0.4-0.8,0.8-0.9,1.3c-0.1,0.3-0.1,0.8-0.2,1.4h-3.3c0-1.4,0.2-2.3,0.4-2.8
				c0.2-0.5,0.7-1.1,1.6-1.8l0.9-0.7c0.3-0.2,0.5-0.5,0.7-0.7c0.3-0.4,0.5-0.9,0.5-1.5c0-0.6-0.2-1.2-0.5-1.7c-0.4-0.5-1-0.8-2-0.8
				c-0.9,0-1.6,0.3-2,0.9c-0.4,0.6-0.6,1.3-0.6,1.9h-3.5C22.2,9.7,23,8.1,24.5,7.2z M26.5,20.7h3.6v3.5h-3.6V20.7z"/>
		</g>
	</g>
</g>
</svg>
