<?xml version="1.0" encoding="utf-8"?>
<!-- Generator: Adobe Illustrator 19.2.1, SVG Export Plug-In . SVG Version: 6.00 Build 0)  -->
<svg version="1.1" id="Capa_1" xmlns="http://www.w3.org/2000/svg" xmlns:xlink="http://www.w3.org/1999/xlink" x="0px" y="0px"
	 viewBox="0 0 50 50" style="enable-background:new 0 0 50 50;" xml:space="preserve">
<style type="text/css">
	.st0{fill:#A1ADBA;}
</style>
<g>
	<g>
		<g>
			<g>
				<path class="st0" d="M34.5,33.6c-0.4-0.4-1-0.4-1.4,0l0,0c-0.4,0.4-0.4,1,0,1.4c0.2,0.2,0.4,0.3,0.7,0.3c0.3,0,0.5-0.1,0.7-0.3
					l0,0C34.9,34.6,34.9,34,34.5,33.6z"/>
			</g>
		</g>
	</g>
	<g>
		<g>
			<g>
				<path class="st0" d="M45,23.4h-2.6v-2.6c0-0.5-0.4-1-1-1c-0.5,0-1,0.4-1,1v2.6h-2.6c-0.5,0-1,0.4-1,1s0.4,1,1,1h2.6v2.6
					c0,0.5,0.4,1,1,1c0.5,0,1-0.4,1-1v-2.6H45c0.5,0,1-0.4,1-1S45.5,23.4,45,23.4z"/>
			</g>
		</g>
	</g>
	<g>
		<g>
			<g>
				<path class="st0" d="M44.6,16.4C43.7,9.6,38.1,4.6,31.4,4.6c-3.4,0-6.5,1.3-9,3.6c-2.5-2.3-5.6-3.6-9-3.6C6,4.6,0,10.7,0,18.3
					c0,1.5,0.4,3.2,1.3,5H1c-0.5,0-1,0.4-1,1s0.4,1,1,1h1.4C4.2,28.3,7,31.8,11,35.7c5.3,5.3,10.7,9.4,10.8,9.5
					c0.2,0.1,0.4,0.2,0.6,0.2s0.4-0.1,0.6-0.2c0,0,4.2-3.2,8.8-7.5c0.4-0.4,0.4-1,0-1.4c-0.4-0.4-1-0.4-1.4,0
					c-3.5,3.3-6.7,5.9-8,6.9c-1.5-1.2-5.8-4.7-10-8.9c-3.4-3.4-6-6.4-7.7-9.1h8.7c0.4,0,0.8-0.3,0.9-0.7l1.7-5.9l4.7,15.1
					c0.1,0.4,0.5,0.7,0.9,0.7c0.4,0,0.8-0.3,0.9-0.7l2.6-8.4h4.4c0.5,0,1-0.4,1-1s-0.4-1-1-1h-5.1c-0.4,0-0.8,0.3-0.9,0.7l-1.9,6.1
					l-4.8-15.3c-0.1-0.4-0.5-0.7-0.9-0.7c-0.4,0-0.8,0.3-0.9,0.7l-2.4,8.4H3.5c-1-1.9-1.5-3.6-1.5-5C2,11.8,7.1,6.5,13.4,6.5
					c3.2,0,6.1,1.3,8.3,3.7c0.2,0.2,0.4,0.3,0.7,0.3s0.5-0.1,0.7-0.3c2.2-2.4,5.1-3.7,8.3-3.7c5.4,0,10.1,3.9,11.2,9.3
					c-0.4,0-0.7-0.1-1.1-0.1c-4.7,0-8.6,3.9-8.6,8.6s3.9,8.6,8.6,8.6s8.6-3.9,8.6-8.6C50,20.7,47.8,17.6,44.6,16.4z M41.4,31
					c-3.7,0-6.6-3-6.6-6.6s3-6.6,6.6-6.6c3.7,0,6.6,3,6.6,6.6S45.1,31,41.4,31z"/>
			</g>
		</g>
	</g>
</g>
</svg>
