<?xml version="1.0" encoding="utf-8"?>
<!-- Generator: Adobe Illustrator 19.2.1, SVG Export Plug-In . SVG Version: 6.00 Build 0)  -->
<svg version="1.1" id="Capa_1" xmlns="http://www.w3.org/2000/svg" xmlns:xlink="http://www.w3.org/1999/xlink" x="0px" y="0px"
	 viewBox="0 0 403 663" style="enable-background:new 0 0 403 663;" xml:space="preserve">
<path d="M392.8,100.7c-5.6-0.3-68.3-0.3-129-0.2c1.7-5.6,2.6-12.5,2.6-12.5c2.2,0.2,5.4,0.5,10-15.8c4.6-16.3-3.2-17.9-3.2-17.9
	c8.3-36.7-11.7-40.8-11.7-40.8S263-1,235.5,0.3s-38.9,17.5-41.8,25.8c-2.9,8.3,1.2,32.1,1.2,32.1c-4.4-1-4.6,3.4-3.2,14.1
	c1.5,10.7,9.8,18.5,9.8,18.5c1,4.7,2.7,8.2,3.6,9.9c-33.6,0.1-58.2,0.1-58.2,0.1s-8.6,1.5-13.8,16L92.3,353.2c0,0-6.4,1.4-11.9,7.9
	c-5.5,6.5-76.5,79-76.5,79s-8.1,15-0.6,31.5l-3.9,5.2v17.8l39.8,2.5L40,607.8c0,0-5.3,10.5-1.3,18c0,0-0.9,17,6.6,18s16-4,14-12
	c0,0,2.5-16.5-2.5-22l-1.9-29l56.5-0.3v6.9c0,0,6.9,9.3,6.9,10.8c0,1.5-3.5,11.2,1.8,15.3c0,0-8.2,17.7-11.4,19
	c-3.2,1.3-14.3,9.2-16,16.8c0,0-2.2,1-1.2,7.8c0,0,8,6.6,25.8,5.1c17.7-1.5,25.5-5.1,32.1-14.8c0,0,16.8-6.1,18.2-7.8
	c1.5-1.7,0.2-7.8,0-10.9c-0.2-3.2-1-11.2-2.2-13.1c0,0,4.8-4.1,2.9-8.3c-1.9-4.1,1.1-19.2,0.5-21.1c-0.4-1.1-1.3-3.5-2-5.8l62.8-0.3
	c-0.7,2.2-1,5,0,7.8c2.2,5.8-2.2,15.6-1.2,18.5s3.9,10.5,3.9,10.5s-1.5,27.7-2.7,30.6c0,0-4.4,4.4,0.7,10.5s28.9,5.5,33.8,4.6
	c4.9-0.9,12.9-4.1,13.4-6.8c0.5-2.7,0.5-8.5,0-9.5c-0.5-1-6.8-23.3-6.8-28.4c0,0,5.3-4.1,4.4-10.2c0,0,0.4-2.7,2.4-5.3v8.6
	c0,0-5.3,1,0.3,15.5c0,0-2.4,15.5,7.1,15.5s12.1-4.5,11.6-7.5c0,0,3.5-20.5-4-25l-0.8-30.5l89.7-134.1v23c0,0-5.2,2.9-2.2,9.2
	c0,0-3.4,17.3,8.6,16.8c12-0.5,7.3-23,7.3-23l-1.7-2.3l-0.8-109.9l7.7-15v-27l-18.8,2l20.8-139.1v-68.1
	C402.5,111.2,403.9,101.2,392.8,100.7z"/>
</svg>
