<?xml version="1.0" encoding="utf-8"?>
<!-- Generator: Adobe Illustrator 19.2.1, SVG Export Plug-In . SVG Version: 6.00 Build 0)  -->
<svg version="1.1" id="Capa_1" xmlns="http://www.w3.org/2000/svg" xmlns:xlink="http://www.w3.org/1999/xlink" x="0px" y="0px"
	 viewBox="0 0 444 679" style="enable-background:new 0 0 444 679;" xml:space="preserve">
<path d="M438.4,499.2c-0.7-9.3-13.2-43.3-13.2-43.3l0.8-74c0,0,0-6.6-6.6-20c-6.7-13.3-30-60-30-60s-10-10.7-10.7,12
	c-0.7,22.7,0,38.7,0,38.7l-22.4-216.7c0,0-1.3-12.5-24-14.6c0,0,4.7-13.6,1.3-19.5c-3.3-5.9-19.3,0-19.3,0s-22-3.3-34.7-2.6
	c-4,0.2-8.6,0.9-13.7,1.8c3.7-6.7,0.4-19.1,0.4-19.1l0.6-6c13.2-8.8,1.3-12.3,1.3-12.3v-9l-2.8-2.5c-0.2-34.6-27.5-43.5-27.5-43.5
	c0.5-2.7-1.7-4-1.7-4l-7-0.5c-1.2-3.2-4-3.8-4-3.8s-9.3-0.2-12.2,0C210,0.3,209,4.4,209,4.4h-7.3l-2.3,4.7
	C175.9,17.6,171.9,53,171.9,53c-4.5,2.4-1.6,10.9-1.6,10.9s-6.1-3.2-5.7,4.9s11.3,7.3,11.3,7.3c-3.6,3.6-4.2,7-4.2,10.9
	c-1.8,4.2-0.9,10,0,13.6c-7.7-1.1-13.4-1.9-15.1-1.7c-4.6,0.8-21.3-2.6-28.6,2.8c0,0-30.4-15.5-19.5,19.6c0,0-20.6-2.8-23.3,15.9
	c-2.7,18.7-20.6,212-20.6,212s-1.3-58.1-10.6-51.1c-9.3,7.1-35.3,75.5-35.3,75.5s-3,74.8-1,84.8c0,0-14.3,68.7-15,83.3
	c0,0-8.7,24,6,26.7c12.8,2.3,13.4-4.4,13.3-6.3c0.2,2.4,1.6,14.2,10,13.6c9.3-0.7,18,0.7,18,0.7s2.8-1,4.4-4h18.9l-5.3,23.3
	c0,0-12.5-5.7-13.6,7.7c-1.1,13.3,0,29.2,0,29.2s-7.6,11.2,0,27.9c0,0-1.7,16.6,4.3,16.6s13.3,7.3,13.3-15.4c0,0,4-9.3,3.3-28l-4-10
	l304.3,0.7l-5.3,10c0,0-3.7,26.7,4.3,28c0,0-3,14.3,4.3,15.8c7.3,1.5,13.7,0.9,13-15.8l2.3-4v-23.7l-2.3-5l-0.9-29.3
	c0,0,5.6-8.3-13.1-5.7l-5.9-23.7l20.7-1c0,0,0.5,5,9.8,4.3c9.3-0.7,19.8,2.7,19.8-4.7v-6c0,0,21.1,15.3,21.7-8.7
	C444.6,531.2,439,508.5,438.4,499.2z"/>
</svg>
