<?xml version="1.0" encoding="utf-8"?>
<!-- Generator: Adobe Illustrator 19.2.1, SVG Export Plug-In . SVG Version: 6.00 Build 0)  -->
<svg version="1.1" id="Capa_1" xmlns="http://www.w3.org/2000/svg" xmlns:xlink="http://www.w3.org/1999/xlink" x="0px" y="0px"
	 viewBox="0 0 346 679" style="enable-background:new 0 0 346 679;" xml:space="preserve">
<path d="M344.3,392.8c-0.3-0.9-0.7-1.8-1.1-2.7c1.2-8.6-3.9-16.2-4.2-17.2c-0.3-1-12.6-12.7-12.6-12.7l2.2-3.9l-4.6-12.4
	c0.3-3.9,1.3-10.8,0-12.4c-1.3-1.6-8.1-12.1-8.1-12.1c-1.6-12.7-8.1-17.6-8.1-17.6c1.6-8.8-5.2-16-5.2-16s-19.6-72.7-24.1-87
	c-4.6-14.3-15.3-23.5-15.3-23.5l-15.8-6.7c2.7-2.6,5.2-7.1,4.5-14.4c-1.5-15,1-43-23-48.5c-4-0.9-9.5-1.6-15.9-2
	c0.9-3.1,2-7.8,2.9-13c1.6-9.8-2.9-8.5-2.9-8.5l0.8-6.2c22.8-4.9,5.3-13,5.3-13v-9l-2.5-3c-0.7-31.6-24.2-42.7-24.2-42.7
	s0.4-2-2.6-3.8c-3-1.8-9.7,0-9.7,0l-1.9-3.7c0,0-10.1-1.7-13.4,0c-3.3,1.7-2.9,3.7-2.9,3.7s-4.9-0.8-8.5,0c-3.6,0.8-4.2,4.7-4.2,4.7
	c-22.8,8.8-25.1,42-25.1,42l-2.6,3.3l1,8.5c-15,10.1,6.5,14.7,6.5,14.7l-1.3,4.6c-1.8,8.4,0.4,17.5,2,22.4
	c-7.4,0.4-13.2,0.8-16.6,1.1c0,0-18,2-20.5,16.5c-2.1,12.4-10.5,38.5,2.6,46.8c-7.7,3.6-18.1,8.8-18.9,11.6c-1.3,4.6-6.5,9.5-7.5,14
	c-1,4.6-25.1,90.9-25.1,90.9s-7.2,4.6-6.2,16.3c0,0-9.1,11.1-7.5,19.6c0,0-7.2,8.1-7.8,10.8c-0.7,2.6,1.6,8.1,0,10.4
	c-1.5,2.1-6.1,10.7-3.6,17.3c-0.9,1.3-1.7,2.6-2.6,3.9c-2.7,2.1-6.2,4.9-7.2,6.5c-1.6,2.6-4.2,7.8-4.9,9.8C3.5,381.4,3,385.3,3,389
	c-4.5,12.4-4.7,22.6,5.5,26.6h23l9,68.5c0,0-13.3,18.8,30.7,20.2l0.7,4.4c0,0-12-1.4-13.3,13.9c-1.3,15.3-4,74.6-4,74.6
	s-18.6,24-3,34.6c6.2,4.2,18.9,7.8,35.2,10.6c-1.1,2.5-2.7,5.7-4.1,6.7c-2.3,1.8-8.4,6.1-9,17.1c0,0-3.4,4,0,6.3
	c3.3,2.3,14.3,6.6,26.3,6.6s21.3-7.6,23.3-9.3c2-1.7,4.7-8.7,4.7-10.7c0,0,6.3-3.3,9.7-5.3c1.5-0.9,1.6-3.3,1.4-5.8
	c11.9,0.7,24,1.1,35.6,1.1c11.7,0,23.7-0.3,35.4-1c-0.2,1.4-0.1,2.7,0.3,3.8c0,0,1,5.3,11.3,7.3c0,0-1.7,19.7,31.3,18.7
	c0,0,14.3,0,21.3-5.3v-8.3c0,0,2.4-6.8-14.3-21.4c15.2-2.7,26.9-6.2,31.9-10.4c12.7-10.7,6.1-20.7,6.1-20.7l-6-14.7l-2.7-76
	c0,0-2-13.7-14.7-13.7l-0.9-3.7c0,0,31.9,2.3,32.9-17.2l6.5-71l23-1.5C335.8,413.8,351.3,411.3,344.3,392.8z"/>
</svg>
