<?xml version="1.0" encoding="utf-8"?>
<!-- Generator: Adobe Illustrator 19.2.1, SVG Export Plug-In . SVG Version: 6.00 Build 0)  -->
<svg version="1.1" id="Capa_1" xmlns="http://www.w3.org/2000/svg" xmlns:xlink="http://www.w3.org/1999/xlink" x="0px" y="0px"
	 viewBox="0 0 379 649" style="enable-background:new 0 0 379 649;" xml:space="preserve">
<path d="M378.6,360.1c-0.5-3.2-3.6-8.5-7.8-14.7l0.7-2.6c0,0-3.3-4.8-7-10.7c-3.7-6-14-12.8-14-12.8l0,0c-0.3-7-2.5-9-2.5-9
	c0-8.3-5.3-7.3-5.3-7.3s0.8-4.3,0-8c-0.8-3.7-3.8-6-6.8-7c-3-1-6.1-5.3-6.1-5.3s1-7.8,0-7.8l-5.9-5c3.8-1.8-2.7-6.2-2.7-6.2
	s3.5-5.5,1-7c-2.5-1.5-6-8-6-8c0-2.3-0.8-10-2.3-13c-1.5-3-8.1-26.5-8.1-26.5l-1.7-1.8c-0.1-1.6-0.1-3.2-0.2-4.8
	c-1-27.8-2.4-61.2-4.4-100c0,0-0.5-21.1-20-26.6c-6.4-1.8-24.1-2.9-46.2-3.2c1.1-2.3,2.2-5.1,3-8.8c2.8-11.9-7.2-10.3-7.2-10.3
	s10.8-56.7-38.2-53.7s-36.7,54.3-36.7,54.3c-9.8-4.2-7.7,7.8-7.5,10.2c0.2,3,1.6,6.8,2.9,9.7c-19.6,1-36.6,2.4-46.3,4.3
	c-0.1-0.1-12.9,2.1-18.3,24l-4.6,106.7h-0.2c0,0-4.2,19-6.7,23S70,251.7,70,251.7s-7,5.5-7,16.5c0,0-2-1-9.5,11
	c-7.5,12-15,5-9.5,19.5c0,0-8,7.8-8.2,14.9c-2.2,2.6-4.7,5.6-7.3,8.8c-3.1,2.3-6.8,4.5-10,5.4c-5.9,1.6-9.8,12.1-9.7,19.2
	c-5,6.3-8.5,10.8-8.5,10.8s-1.3,18.6,3.3,20.6c4.6,2,24.7,0,24.7,0s-3.3,142.6,2,191.2c0,0,3.3,6,8.7,7.3c0,0-0.5,30.5,3.6,31
	c4.1,0.5,17.6,1.5,21.6-2.5c0,0,4-30.2,7-33.2c0,0-2,31.3,19,31.3c2.7,0,8,0,15.2,0l-0.3,1.5c0,0-2.7,3.9-3,8.5
	c0,0-8.2,9.6-10.1,10.1s-5.7,6-6.3,11.5c-0.5,5.4-1,8.4-1,8.4s7.8,6.9,22.8,5.3c0,0,27.5,3.2,33-14.8l4.1-1.6c0,0,5.4-3.2,9.5-7.7
	c0,0,0.5-5.6,0-9.9c0,0-0.7-6.3-2-11.3c23.1,0,49.2,0,72.4,0c-1.4,4-2.7,8.1-2.7,11.3l-0.4,12.1c0,0,4.9,4.1,10.3,5
	c0,0,3.8,18.3,33.8,15.8c30-2.4,21.8-5.4,21.8-5.4l1-8.7c0,0,0.6-7.6-11.9-16.5c0,0-4.2-6.4-6-13.4c12.1,0,19.5,0,19.5,0
	s16.5-1,14.5-32l6,6.7c0,0,1.5,28.9,7.5,30.4c6,1.5,13-1.1,16-2.6c3-1.5,4-30.5,4-30.5s8.5,1.5,8.5-8.5s7.5-86,4-184.4
	c0,0,19.5-1.5,21.5-2C374.1,380.3,380.6,372.1,378.6,360.1z"/>
</svg>
